# xmcd
# Copyright (C) 1995-1998 Ti Kan
#
# Track frame offsets:
#       150
#       19445
#       35639
#       46282
#       63141
#       83320
#       105942
#       127037
#       140434
#       158942
#       174767
#
# Disc length: 2616 seconds
#
# Revision: 2
# Processed by: cddbd v1.5PL3 Copyright (c) Steve Scherf et al.
# Submitted via: CD-Transfer v1.0
#
DISCID=820a360b
DTITLE=Wake - You Are Safe
DYEAR=2004
DGENRE=
TTITLE0=Fresh Again
TTITLE1=In Motion
TTITLE2=Shake Shake
TTITLE3=Chromosome
TTITLE4=Frequent Solitude
TTITLE5=Almost Yesterday
TTITLE6=Safe
TTITLE7=Hometown Rocker
TTITLE8=Learn To Love In L.a.
TTITLE9=Honey
TTITLE10=Home
EXTD=
EXTT0=
EXTT1=
EXTT2=
EXTT3=
EXTT4=
EXTT5=
EXTT6=
EXTT7=
EXTT8=
EXTT9=
EXTT10=
PLAYORDER=
